<mxfile host="65bd71144e">
    <diagram id="kd_io54wB0ym1vN_K54W" name="Page-1">
        <mxGraphModel dx="645" dy="304" grid="1" gridSize="10" guides="1" tooltips="1" connect="1" arrows="1" fold="1" page="1" pageScale="1" pageWidth="827" pageHeight="1169" math="0" shadow="0">
            <root>
                <mxCell id="0"/>
                <mxCell id="1" parent="0"/>
                <mxCell id="2" value="" style="endArrow=none;html=1;strokeWidth=3;" edge="1" parent="1">
                    <mxGeometry width="50" height="50" relative="1" as="geometry">
                        <mxPoint x="320" y="170" as="sourcePoint"/>
                        <mxPoint x="280" y="170" as="targetPoint"/>
                    </mxGeometry>
                </mxCell>
                <mxCell id="3" value="" style="endArrow=none;html=1;strokeWidth=3;" edge="1" parent="1">
                    <mxGeometry width="50" height="50" relative="1" as="geometry">
                        <mxPoint x="290" y="179.74" as="sourcePoint"/>
                        <mxPoint x="310" y="179.74" as="targetPoint"/>
                    </mxGeometry>
                </mxCell>
                <mxCell id="5" value="ESP" style="rounded=0;whiteSpace=wrap;html=1;strokeWidth=3;" vertex="1" parent="1">
                    <mxGeometry x="390" y="150" width="60" height="50" as="geometry"/>
                </mxCell>
                <mxCell id="6" value="" style="endArrow=none;html=1;strokeWidth=3;exitX=0;exitY=0.75;exitDx=0;exitDy=0;edgeStyle=elbowEdgeStyle;elbow=vertical;rounded=0;" edge="1" parent="1" source="5">
                    <mxGeometry width="50" height="50" relative="1" as="geometry">
                        <mxPoint x="440" y="200" as="sourcePoint"/>
                        <mxPoint x="300" y="180" as="targetPoint"/>
                        <Array as="points">
                            <mxPoint x="350" y="190"/>
                        </Array>
                    </mxGeometry>
                </mxCell>
                <mxCell id="7" value="" style="endArrow=none;html=1;strokeWidth=3;exitX=0;exitY=0;exitDx=0;exitDy=0;edgeStyle=elbowEdgeStyle;elbow=vertical;rounded=0;" edge="1" parent="1" source="5">
                    <mxGeometry width="50" height="50" relative="1" as="geometry">
                        <mxPoint x="400" y="200" as="sourcePoint"/>
                        <mxPoint x="300" y="170" as="targetPoint"/>
                        <Array as="points">
                            <mxPoint x="340" y="160"/>
                        </Array>
                    </mxGeometry>
                </mxCell>
                <mxCell id="8" value="Buzzer" style="rounded=0;whiteSpace=wrap;html=1;strokeWidth=3;" vertex="1" parent="1">
                    <mxGeometry x="360" y="240" width="60" height="40" as="geometry"/>
                </mxCell>
                <mxCell id="9" value="" style="endArrow=none;html=1;strokeWidth=3;exitX=0.25;exitY=1;exitDx=0;exitDy=0;entryX=0.75;entryY=0;entryDx=0;entryDy=0;" edge="1" parent="1" source="5" target="8">
                    <mxGeometry width="50" height="50" relative="1" as="geometry">
                        <mxPoint x="330" y="180" as="sourcePoint"/>
                        <mxPoint x="290" y="180" as="targetPoint"/>
                    </mxGeometry>
                </mxCell>
                <mxCell id="10" value="" style="endArrow=none;html=1;strokeWidth=3;entryX=0.34;entryY=0.011;entryDx=0;entryDy=0;entryPerimeter=0;" edge="1" parent="1" target="8">
                    <mxGeometry width="50" height="50" relative="1" as="geometry">
                        <mxPoint x="380" y="160" as="sourcePoint"/>
                        <mxPoint x="415" y="250" as="targetPoint"/>
                    </mxGeometry>
                </mxCell>
                <mxCell id="11" value="" style="endArrow=none;html=1;strokeWidth=3;entryX=0.161;entryY=-0.015;entryDx=0;entryDy=0;entryPerimeter=0;" edge="1" parent="1" target="8">
                    <mxGeometry width="50" height="50" relative="1" as="geometry">
                        <mxPoint x="370" y="190" as="sourcePoint"/>
                        <mxPoint x="390.4" y="250.44" as="targetPoint"/>
                    </mxGeometry>
                </mxCell>
                <mxCell id="12" value="" style="ellipse;whiteSpace=wrap;html=1;aspect=fixed;strokeWidth=3;fillColor=#000000;" vertex="1" parent="1">
                    <mxGeometry x="377" y="158" width="5" height="5" as="geometry"/>
                </mxCell>
                <mxCell id="14" value="" style="ellipse;whiteSpace=wrap;html=1;aspect=fixed;strokeWidth=3;fillColor=#000000;" vertex="1" parent="1">
                    <mxGeometry x="367" y="187" width="5" height="5" as="geometry"/>
                </mxCell>
            </root>
        </mxGraphModel>
    </diagram>
</mxfile>